<?xml version="1.0" encoding="utf-8"?>
<!-- Generator: Adobe Illustrator 23.0.3, SVG Export Plug-In . SVG Version: 6.00 Build 0)  -->
<svg version="1.1" id="Layer_1" xmlns="http://www.w3.org/2000/svg" xmlns:xlink="http://www.w3.org/1999/xlink" x="0px" y="0px"
	 viewBox="0 0 50 50" style="enable-background:new 0 0 50 50;" xml:space="preserve">
<style type="text/css">
	.st0{fill:#0E76A8;}
	.st1{fill:#FFFFFF;}
</style>
<g>
	<path class="st0" d="M25,0c13.8,0,25,11.2,25,25S38.8,50,25,50S0,38.8,0,25S11.2,0,25,0z"/>
	<path class="st1" d="M14.1,34.3h4.7V18.7h-4.7V34.3z M32.3,18.2c-2.3,0-4.3,0.8-5.7,2.7v-2.2h-4.7v15.7h4.7v-8.5
		c0-1.8,1.6-3.5,3.7-3.5s2.6,1.7,2.6,3.5v8.5h4.7v-8.9C37.5,19.3,34.6,18.2,32.3,18.2z M16.4,17.2c1.3,0,2.3-1.1,2.3-2.3
		s-1.1-2.3-2.3-2.3c-1.3,0-2.3,1.1-2.3,2.3S15.1,17.2,16.4,17.2z"/>
</g>
</svg>
