<?xml version="1.0" encoding="utf-8"?>
<!-- Generator: Adobe Illustrator 23.0.3, SVG Export Plug-In . SVG Version: 6.00 Build 0)  -->
<svg version="1.1" id="Logo_FIXED" xmlns="http://www.w3.org/2000/svg" xmlns:xlink="http://www.w3.org/1999/xlink" x="0px" y="0px"
	 viewBox="0 0 50 50" style="enable-background:new 0 0 50 50;" xml:space="preserve">
<style type="text/css">
	.st0{fill:none;}
	.st1{fill:#1DA1F2;}
</style>
<title>Twitter_Logo_Blue</title>
<rect x="-175" y="-175" class="st0" width="400" height="400"/>
<path class="st1" d="M15.7,45.3c18.9,0,29.2-15.6,29.2-29.2c0-0.4,0-0.9,0-1.3c2-1.5,3.7-3.3,5.1-5.3c-1.9,0.8-3.9,1.4-5.9,1.6
	c2.1-1.3,3.7-3.3,4.5-5.7c-2,1.2-4.2,2-6.5,2.5c-3.9-4.1-10.4-4.3-14.5-0.4c-2.7,2.5-3.8,6.2-3,9.8C16.4,16.9,8.7,13,3.5,6.6
	c-2.7,4.7-1.3,10.7,3.2,13.7C5,20.2,3.4,19.8,2,19c0,0,0,0.1,0,0.1c0,4.9,3.4,9.1,8.2,10.1c-1.5,0.4-3.1,0.5-4.6,0.2
	c1.3,4.2,5.2,7,9.6,7.1c-3.6,2.9-8.1,4.4-12.7,4.4c-0.8,0-1.6-0.1-2.4-0.1C4.7,43.7,10.1,45.3,15.7,45.3"/>
</svg>
